<svg width="133" height="53" viewBox="0 0 133 53" fill="none" xmlns="http://www.w3.org/2000/svg">
<path d="M14.9815 44V17.8182H32.8537V22.9574H21.3097V28.3267H31.7159V33.4787H21.3097V44H14.9815ZM43.7777 44.3707C41.7237 44.3707 39.951 43.9659 38.4595 43.1562C36.9766 42.3381 35.8345 41.1747 35.0334 39.6662C34.2408 38.1491 33.8445 36.3466 33.8445 34.2585C33.8445 32.2301 34.245 30.4574 35.0462 28.9403C35.8473 27.4148 36.9766 26.2301 38.4339 25.3864C39.8913 24.5341 41.6087 24.108 43.5859 24.108C44.9837 24.108 46.2621 24.3253 47.4212 24.7599C48.5803 25.1946 49.5817 25.8381 50.4254 26.6903C51.2692 27.5426 51.9254 28.5952 52.3942 29.848C52.8629 31.0923 53.0973 32.5199 53.0973 34.1307V35.6903H36.0305V32.0597H47.2805C47.272 31.3949 47.1143 30.8026 46.8075 30.2827C46.5007 29.7628 46.0788 29.358 45.5419 29.0682C45.0135 28.7699 44.4041 28.6207 43.7138 28.6207C43.0149 28.6207 42.3885 28.7784 41.8345 29.0938C41.2805 29.4006 40.8416 29.8224 40.5178 30.3594C40.1939 30.8878 40.0234 31.4886 40.0064 32.1619V35.8565C40.0064 36.6577 40.1641 37.3608 40.4794 37.9659C40.7947 38.5625 41.2422 39.027 41.8217 39.3594C42.4013 39.6918 43.0916 39.858 43.8928 39.858C44.4467 39.858 44.9496 39.7812 45.4013 39.6278C45.853 39.4744 46.2408 39.2486 46.5646 38.9503C46.8885 38.652 47.1314 38.2855 47.2933 37.8509L53.0334 38.017C52.7947 39.304 52.2706 40.4247 51.4609 41.3793C50.6598 42.3253 49.6072 43.0625 48.3033 43.5909C46.9993 44.1108 45.4908 44.3707 43.7777 44.3707ZM56.2901 44V24.3636H62.2347V27.9688H62.4521C62.8612 26.7756 63.5515 25.8338 64.5231 25.1435C65.4947 24.4531 66.6538 24.108 68.0004 24.108C69.364 24.108 70.5316 24.4574 71.5032 25.1562C72.4748 25.8551 73.0927 26.7926 73.3569 27.9688H73.5614C73.9279 26.8011 74.6438 25.8679 75.7092 25.169C76.7745 24.4616 78.0316 24.108 79.4805 24.108C81.3384 24.108 82.8469 24.7045 84.006 25.8977C85.1651 27.0824 85.7447 28.7102 85.7447 30.7812V44H79.4933V32.2131C79.4933 31.233 79.2418 30.4872 78.739 29.9759C78.2362 29.456 77.5842 29.196 76.783 29.196C75.9222 29.196 75.2447 29.4773 74.7504 30.0398C74.2646 30.5937 74.0217 31.3395 74.0217 32.277V44H68.0131V32.1491C68.0131 31.2372 67.766 30.517 67.2717 29.9886C66.7773 29.4602 66.1254 29.196 65.3157 29.196C64.7702 29.196 64.2887 29.3281 63.8711 29.5923C63.4535 29.848 63.1254 30.2145 62.8867 30.6918C62.6566 31.169 62.5415 31.7315 62.5415 32.3793V44H56.2901ZM98.7844 44.3707C96.7219 44.3707 94.9492 43.9489 93.4663 43.1051C91.9918 42.2528 90.854 41.0682 90.0529 39.5511C89.2603 38.0256 88.864 36.2571 88.864 34.2457C88.864 32.2259 89.2603 30.4574 90.0529 28.9403C90.854 27.4148 91.9918 26.2301 93.4663 25.3864C94.9492 24.5341 96.7219 24.108 98.7844 24.108C100.847 24.108 102.615 24.5341 104.09 25.3864C105.573 26.2301 106.711 27.4148 107.503 28.9403C108.304 30.4574 108.705 32.2259 108.705 34.2457C108.705 36.2571 108.304 38.0256 107.503 39.5511C106.711 41.0682 105.573 42.2528 104.09 43.1051C102.615 43.9489 100.847 44.3707 98.7844 44.3707ZM98.8228 39.6534C99.5728 39.6534 100.208 39.4233 100.728 38.9631C101.248 38.5028 101.644 37.8636 101.917 37.0455C102.198 36.2273 102.338 35.2812 102.338 34.2074C102.338 33.1165 102.198 32.1619 101.917 31.3438C101.644 30.5256 101.248 29.8864 100.728 29.4261C100.208 28.9659 99.5728 28.7358 98.8228 28.7358C98.0472 28.7358 97.391 28.9659 96.854 29.4261C96.3256 29.8864 95.9208 30.5256 95.6396 31.3438C95.3668 32.1619 95.2305 33.1165 95.2305 34.2074C95.2305 35.2812 95.3668 36.2273 95.6396 37.0455C95.9208 37.8636 96.3256 38.5028 96.854 38.9631C97.391 39.4233 98.0472 39.6534 98.8228 39.6534ZM118.159 32.8011V44H111.907V24.3636H117.852V27.9688H118.069C118.504 26.767 119.245 25.8253 120.294 25.1435C121.342 24.4531 122.591 24.108 124.039 24.108C125.42 24.108 126.618 24.419 127.632 25.0412C128.654 25.6548 129.447 26.5156 130.01 27.6236C130.581 28.723 130.862 30.0099 130.853 31.4844V44H124.602V32.7116C124.61 31.6207 124.333 30.7685 123.771 30.1548C123.217 29.5412 122.446 29.2344 121.457 29.2344C120.801 29.2344 120.221 29.3793 119.718 29.669C119.224 29.9503 118.841 30.3551 118.568 30.8835C118.304 31.4119 118.167 32.0511 118.159 32.8011Z" fill="white"/>
<path d="M24.9674 4.5037C28.1199 4.57631 31.0156 5.06926 33.6544 5.98254C36.2846 6.89562 38.7164 8.28153 40.9498 10.1403L40.8102 16.1983C39.9826 15.4887 38.9705 14.8303 37.7739 14.2231C36.5776 13.6073 35.2643 13.0698 33.8342 12.6106C32.4042 12.1429 30.9209 11.772 29.3842 11.4979C27.8477 11.2153 26.3254 11.0566 24.8172 11.0219C22.7979 10.9753 20.7609 11.1373 18.7064 11.5077C16.6434 11.8779 14.7302 12.405 12.9668 13.089C11.1949 13.7728 9.73598 14.5619 8.59008 15.4562L8.72962 9.39813C11.0462 7.64419 13.5435 6.37182 16.2215 5.581C18.891 4.78999 21.8063 4.43089 24.9674 4.5037Z" fill="#6100FF"/>
</svg>
